<svg width="32" height="32" viewBox="0 0 32 32" xmlns="http://www.w3.org/2000/svg">
  <!-- Background circle -->
  <circle cx="16" cy="16" r="16" fill="#4ecdc4"/>
  
  <!-- Book shape (main element) -->
  <path d="M8 7 L16 9 L24 7 L24 23 L16 21 L8 23 Z" fill="#ffffff" stroke="#2563eb" stroke-width="0.5"/>
  
  <!-- Book pages/binding -->
  <line x1="16" y1="9" x2="16" y2="21" stroke="#e5e7eb" stroke-width="1"/>
  <path d="M8 7 L16 9 L16 21 L8 23 Z" fill="#f9fafb"/>
  <path d="M16 9 L24 7 L24 23 L16 21 Z" fill="#f3f4f6"/>
  
  <!-- Magic sparkle/star (representing wonder of reading) -->
  <g transform="translate(16,16)">
    <!-- Main star -->
    <path d="M0 -3 L1 -1 L3 -1 L1.5 0.5 L2 2.5 L0 1.5 L-2 2.5 L-1.5 0.5 L-3 -1 L-1 -1 Z" fill="#fbbf24"/>
    
    <!-- Small sparkles -->
    <circle cx="-4" cy="-2" r="0.8" fill="#fbbf24" opacity="0.8"/>
    <circle cx="4" cy="1" r="0.6" fill="#fbbf24" opacity="0.6"/>
    <circle cx="-2" cy="3" r="0.5" fill="#fbbf24" opacity="0.7"/>
  </g>
  
  <!-- Reading/education symbol - small letters -->
  <text x="16" y="26" text-anchor="middle" font-family="Arial, sans-serif" font-size="4" font-weight="bold" fill="#2563eb">ABC</text>
</svg>